<svg xmlns="http://www.w3.org/2000/svg" width="1024" height="1024" viewBox="0 0 1024 1024"><defs><linearGradient id="a" x1="975.817" x2="602.165" y1="943.232" y2="584.199" gradientUnits="userSpaceOnUse"><stop offset="0" stop-color="#5e29db"/><stop offset="1" stop-color="#8e5bff"/></linearGradient></defs><path fill="url(#a)" d="M733.707 454.705c5.799-1.757 22.677-3.211 29.481-3.275 42.56-.397 85.347-.214 127.913-.186l58.429.035c9.474-.008 24.835-1.321 34.059 1.449 1.975.593 2.478 2.211 3.058 4.016-.282 1.563-.948 4.042-2.121 5.042-10.762 9.18-53.508 56.602-62.442 60.259-12.056 4.934-88.656 1.986-103.862 2.396-44.45 1.198-95.682-5.361-130.993 27.824 11.208 7.603 23.729 14.142 35.359 21.148 25.527 15.378 53.015 30.198 78.164 46.055 9.657-5.976 18.259-8.784 29.89-6.202a34.4 34.4 0 0 1 21.407 15.166c5.235 8.274 6.467 18.391 4.242 27.845a34.78 34.78 0 0 1-16.705 22.569c-23.684 13.697-50.141-2.387-53.201-29.585-40.599-23.799-83.363-47.799-123.388-72.104-27.573 40.431-11.429 80.667 27.637 104.724 18.604 11.456 37.277 22.26 56.127 33.294l95.249 56.014c39.604 23.356 83.045 44.694 104.568 87.806 12.066-69.95-36.358-121.355-90.347-153.604-2.109-1.26-4.267-4.096-4.555-6.651 1.759-7.465 9.58-17.609 15.684-22.337 4.544-3.52 13.379 1.8 17.492 4.183 35.228 20.411 65.433 49.547 84.56 85.834 48.228 91.503-.643 220.646-90.428 266.88a177.4 177.4 0 0 1-57.544 18.03c-7.606.98-15.254 1.59-22.919 1.84-19.126.51-39.951.13-59.193.13l-106.908.05c-17.911.02-35.834.03-53.747.08-4.187.01-6.128.39-9.463-2.47-.681-1.48-1.545-3.4-.353-5.07 13.43-18.88 34.805-34.48 49.471-52.347 16.919-20.617 26.363-15.241 50.716-15.209l90.147.308c33.546.161 71.972 3.402 101.326-15.62-43.004-27.567-90.111-53.428-133.743-80.569-6.122 1.958-10.698 3.554-17.236 3.528-15.351-.063-27.967-10.502-32.352-25.043a36.06 36.06 0 0 1 2.872-27.969c4.593-8.402 12.141-14.5 21.464-16.84a37.58 37.58 0 0 1 28.117 4.196c13.192 7.953 15.415 20.757 15.286 34.807 45.529 28.424 93.22 55.123 139.311 83.022 14.253-27.118 6.179-58.159-16.727-77.55-17.114-14.488-36.696-25.109-55.89-36.536a8282 8282 0 0 0-90.582-54.001c-29.812-17.516-63.585-35.654-89.362-58.549-11.91-10.577-19.171-22.054-26.942-35.698-4.094 51.016 16.691 98.196 58.385 128.467 3.034 2.203 8.411 5.634 7.518 10.421-1.473 7.886-10.779 24.099-20.528 22.637-3.811-1.419-7.92-3.798-11.223-6.161-21.785-15.586-40.882-38.648-52.955-62.503-25.181-49.755-25.038-102.225-13.042-155.184 7.908-29.038 18.383-55.107 36.039-79.891a192.46 192.46 0 0 1 124.78-78.901" transform="scale(.65515)"/><path fill="#9460fe" d="M375.328 401.933c5.18-19.025 12.043-36.104 23.61-52.341a126.1 126.1 0 0 1 81.75-51.692c-.576.411-1.203.8-1.688 1.286 1.745.188 1.92.378 3.272 1.356 2.689 8.655-20.542 26.242-25.572 31.795-2.994 3.752-5.174 8.033-8.45 11.575-4.482 4.846-11.282 6.937-13.371 13.666-.988 3.182-7.019 10.064-9.784 12.223-10.46 8.168-16.754 20.328-29.712 24.973-4.627 1.67-8.695 3.008-13.106 4.506l-.732-1.023c-3.346.993-1.697 3.662-6.217 3.676"/></svg>